<svg width="87" height="13" viewBox="0 0 87 13" fill="none" xmlns="http://www.w3.org/2000/svg">
<path d="M5.29535 4.89536C5.33535 4.89536 5.35535 4.91537 5.25535 4.97536C5.15535 5.33536 4.99535 5.67536 4.93535 6.03537C5.01535 6.21537 4.39535 5.85537 4.17535 6.03537C3.31535 6.27536 2.95535 7.19536 2.65535 7.95536C2.13535 9.45537 1.69535 10.9754 1.21535 12.4954C1.35535 12.7354 1.01535 12.4754 0.875347 12.5554C0.655347 12.5754 0.415347 12.5154 0.215347 12.5954C0.395347 12.3354 0.415347 11.9754 0.555347 11.6554C1.11535 9.81537 1.69535 7.97537 2.23535 6.13537C2.39535 5.85537 2.39535 4.97536 2.51535 4.97536C2.69535 5.05536 2.95535 4.99537 3.15535 5.01537C3.45535 5.01537 3.49535 4.89536 3.35535 5.23536C3.31535 5.61536 3.17535 5.97536 3.03535 6.33536C3.39535 5.67536 3.97535 5.05536 4.75535 4.95536C4.81535 4.97536 5.17535 4.87536 5.29535 4.89536ZM9.23878 9.11536L9.27879 9.25536L9.17879 9.15536H5.97878L5.81878 9.07537L5.85878 9.25536L5.39878 10.8554C5.15878 11.5754 5.43878 12.0354 6.23878 12.0354C7.09878 12.0354 7.59878 11.6554 7.93879 10.4154L7.89878 10.2754L7.99878 10.3354H8.77878L8.89878 10.2954L8.81879 10.4154C8.61878 11.3754 8.05878 12.7354 6.23878 12.7354C5.05878 12.7354 4.01878 12.1554 4.51878 10.4954L5.43878 7.53536C6.09878 5.37537 7.09878 4.91537 8.25879 4.91537C10.2188 4.91537 10.0588 6.39537 9.75879 7.37536L9.23878 9.11536ZM8.13878 5.63536C7.65879 5.63536 6.91878 5.81536 6.41878 7.39537L6.13878 8.27536L5.99878 8.45536L6.23878 8.39537H8.45878L8.59878 8.49537L8.53879 8.29537L8.99879 6.87537C9.23878 6.01537 8.89878 5.63536 8.13878 5.63536ZM13.9266 3.57536C13.9466 3.55536 13.7666 3.85536 13.7866 3.93536C13.6666 4.29536 13.5866 4.67536 13.4266 5.01537C13.1866 5.25536 13.5866 5.01537 13.7266 5.07536C14.0066 5.05536 14.3066 5.13536 14.5666 5.03536C14.5466 5.07536 14.5066 5.09537 14.4866 5.13536H14.4666C14.4266 5.37537 14.2866 5.61536 14.2866 5.85537C14.3466 5.95536 13.9866 5.77536 13.8466 5.83537C13.6066 5.81536 13.3266 5.93537 13.1266 5.75537C13.2466 6.03537 13.0266 6.29537 12.9866 6.55536C12.5066 8.17536 11.9866 9.77537 11.5266 11.3754C11.3266 11.9954 12.0866 12.1154 12.5266 11.9954C12.8866 11.8554 12.7066 11.9154 12.6466 12.1954C12.6066 12.3954 12.4466 12.5954 12.5466 12.7754C12.1866 12.6154 11.6666 12.8554 11.2666 12.6554C10.7266 12.5354 10.4466 11.9754 10.5666 11.4554C10.7266 10.6154 11.0466 9.81537 11.2866 8.99537C11.6066 7.97537 11.9066 6.93537 12.2466 5.93537C12.5066 5.67536 12.1666 5.87536 12.0066 5.83537C11.7266 5.87536 11.4266 5.79536 11.1466 5.89536C11.3466 5.69536 11.3466 5.39536 11.4666 5.15536C11.3266 4.85536 11.6066 5.17537 11.7866 5.07536C12.0466 5.11537 12.3466 5.01537 12.5666 5.17537C12.4666 4.89536 12.6666 4.63537 12.7266 4.35537C12.8266 4.13536 12.6666 3.99537 12.9466 4.03536C13.2466 3.89537 13.5866 3.81537 13.8466 3.63537C13.8866 3.59536 13.9066 3.57536 13.9266 3.57536ZM18.9389 4.95536C18.9989 4.97536 19.1989 5.09537 19.2989 5.01537C19.5189 4.99537 19.7589 5.07536 19.9589 4.97536C19.9389 5.01537 19.9189 5.03536 19.8789 5.05536L19.8589 5.07536C19.2189 7.23537 18.5189 9.37537 17.8789 11.5554C17.7589 11.8154 17.7389 12.4954 17.6589 12.5954C17.4189 12.5354 17.1189 12.5954 16.8589 12.5754C16.4789 12.7554 16.9389 12.1554 16.8989 11.9354C16.9589 11.7554 17.0389 11.5554 17.0989 11.3754C16.8789 11.7554 16.6189 12.1154 16.2189 12.3154C15.5589 12.7154 14.4989 12.7354 14.0389 12.0154C13.6589 11.3354 14.0789 10.5954 14.2589 9.91537C14.7589 8.29537 15.2589 6.67537 15.7589 5.05536C15.5989 4.81537 15.9389 5.13536 16.0989 5.01537C16.3189 5.01537 16.5589 5.07536 16.7789 4.97536C16.5989 5.15536 16.5989 5.45537 16.4989 5.69536C15.9389 7.47536 15.3789 9.27537 14.8389 11.0754C14.6589 11.6754 15.4189 12.0754 15.9189 11.8354C16.8789 11.4554 17.2989 10.4154 17.5789 9.49537C18.0389 8.01537 18.4789 6.53536 18.9389 5.05536C18.8989 4.99537 18.9189 4.95536 18.9389 4.95536ZM24.3383 4.89536C24.3783 4.89536 24.3983 4.91537 24.2983 4.97536C24.1983 5.33536 24.0383 5.67536 23.9783 6.03537C24.0583 6.21537 23.4383 5.85537 23.2183 6.03537C22.3583 6.27536 21.9983 7.19536 21.6983 7.95536C21.1783 9.45537 20.7383 10.9754 20.2583 12.4954C20.3983 12.7354 20.0583 12.4754 19.9183 12.5554C19.6983 12.5754 19.4583 12.5154 19.2583 12.5954C19.4383 12.3354 19.4583 11.9754 19.5983 11.6554C20.1583 9.81537 20.7383 7.97537 21.2783 6.13537C21.4383 5.85537 21.4383 4.97536 21.5583 4.97536C21.7383 5.05536 21.9983 4.99537 22.1983 5.01537C22.4983 5.01537 22.5383 4.89536 22.3983 5.23536C22.3583 5.61536 22.2183 5.97536 22.0783 6.33536C22.4383 5.67536 23.0183 5.05536 23.7983 4.95536C23.8583 4.97536 24.2183 4.87536 24.3383 4.89536ZM27.2747 12.5154L27.3147 12.6554L27.1947 12.5754H26.3547L26.2147 12.6354L26.3147 12.5154L28.1547 6.57537C28.3747 5.91537 27.8547 5.61536 27.4547 5.61536C26.8547 5.61536 25.9947 6.13537 25.4347 7.89536L24.0347 12.5154L24.0547 12.6554L23.9347 12.5754H23.1147L22.9947 12.6354L23.0747 12.5154L24.9547 6.43536C25.1547 5.75537 25.2747 5.15536 25.2947 4.97536L25.2547 4.83537L25.3547 4.93536H26.1747L26.3147 4.89536L26.2147 4.97536C26.1747 5.07536 26.1747 5.25536 26.0947 5.55537L25.8947 6.11537L26.2147 5.61536C26.8947 4.93536 27.5747 4.89536 27.7947 4.89536C28.8747 4.89536 29.3947 5.65537 29.0547 6.75537L27.2747 12.5154ZM36.9883 4.79536C37.5483 4.81537 38.1283 5.03536 38.3283 5.59536C38.5683 6.07536 38.2883 6.61536 38.2883 7.09536C38.3283 7.13537 38.1883 7.03537 38.1883 7.03537C37.8683 7.05537 37.5483 6.99536 37.2483 7.07536C37.5083 6.69536 37.6483 6.11537 37.3883 5.69536C36.8683 5.23536 36.0683 5.65537 35.7683 6.19537C35.4683 6.69536 35.2883 7.43536 35.8283 7.85536C36.3483 8.39537 37.1283 8.71537 37.3683 9.45537C37.5483 10.6554 36.9483 12.0554 35.7283 12.4554C34.9483 12.7154 33.8683 12.6754 33.3883 11.9154C33.0483 11.3954 33.3083 10.7954 33.4283 10.2754C33.3483 10.0954 33.6883 10.3154 33.8283 10.2154C34.0683 10.1754 34.3083 10.2154 34.5283 10.1154C34.3083 10.4754 34.1483 10.8954 34.1483 11.3154C34.2083 11.9554 34.9883 12.0154 35.4483 11.7954C36.1283 11.4754 36.4283 10.6754 36.4883 9.99537C36.4083 9.25536 35.6283 8.93537 35.1683 8.47537C34.7083 8.13536 34.5083 7.53536 34.5883 6.97536C34.6083 5.95536 35.4283 5.01537 36.4483 4.85536C36.6083 4.81537 36.8083 4.79536 36.9883 4.79536ZM41.2739 1.61536L41.3739 1.67537H42.2139L42.3539 1.63536L42.2539 1.73536L41.0739 5.47537L40.8139 5.97536L41.1939 5.57537C41.7739 5.15536 42.3539 4.99537 42.7739 4.99537C44.0539 4.99537 44.2139 6.05536 43.8339 7.27536L42.2139 12.5554L42.2339 12.6954L42.1339 12.6154H41.3139L41.1739 12.6754L41.2739 12.5554L42.9739 6.99536C43.2939 5.97536 42.8739 5.67536 42.4139 5.67536C41.6339 5.67536 40.8739 6.27536 40.0739 8.77536L38.8939 12.5554L38.9539 12.6954L38.8339 12.6154H38.0139L37.8739 12.6754L37.9539 12.5554L41.3139 1.73536L41.2739 1.61536ZM47.4352 1.57536C47.4552 1.57536 47.4552 1.59537 47.4952 1.61536C47.5552 1.65536 47.6552 1.63536 47.7352 1.63536C47.9552 1.63536 48.1552 1.63536 48.3552 1.63536C48.4352 1.59537 48.5152 1.57536 48.4152 1.65536C48.4152 1.67537 48.3952 1.69536 48.3952 1.69536H48.3752C48.2952 2.01536 48.1952 2.31537 48.0952 2.63536C48.0952 2.69537 48.1552 2.81536 48.0552 2.71536C47.9752 2.67536 47.8752 2.71536 47.7752 2.69537C47.5952 2.69537 47.3952 2.69537 47.1952 2.69537C47.1152 2.71536 47.0152 2.77536 47.1152 2.67536C47.1952 2.57536 47.1952 2.45536 47.2552 2.33537C47.3152 2.11536 47.3752 1.91536 47.4552 1.69536C47.4352 1.65536 47.3952 1.57536 47.4352 1.57536ZM46.3552 4.95536C46.3752 4.95536 46.3752 4.97536 46.4152 4.99537C46.4752 5.07536 46.5752 5.01537 46.6552 5.03536C46.8552 5.03536 47.0752 5.03536 47.2752 5.03536C47.3552 4.99537 47.4352 4.97536 47.3352 5.05536C47.3352 5.07536 47.2952 5.07536 47.2952 5.09537H47.3152C46.5552 7.55536 45.7952 10.0354 45.0352 12.5154C45.0752 12.5954 45.0952 12.6954 44.9952 12.6154C44.9152 12.5554 44.8152 12.5954 44.7152 12.5954C44.5152 12.5954 44.3152 12.5754 44.1152 12.5954C44.0352 12.6354 43.9552 12.6554 44.0552 12.5554C44.1152 12.4354 44.1352 12.2754 44.1752 12.1554C44.9152 9.79536 45.6352 7.43536 46.3752 5.09537C46.3552 5.03536 46.3352 4.95536 46.3552 4.95536ZM52.2233 1.57536C52.2633 1.57536 52.3033 1.57536 52.3433 1.57536C52.4433 1.61536 53.3833 1.55536 53.1033 1.71536C53.0433 1.95537 52.9233 2.19536 52.8833 2.45536C52.9433 2.63536 52.3433 2.25536 52.1233 2.39536C51.5433 2.39536 51.3233 2.99536 51.2033 3.45536C51.0433 3.93536 50.9233 4.43536 50.7433 4.91537C50.5033 5.19537 50.8233 4.97536 50.9833 5.01537C51.3233 4.97536 51.6833 5.05536 52.0233 4.95536C51.8233 5.11537 51.8433 5.41536 51.7433 5.63536C51.7433 5.93537 51.7433 5.77536 51.4833 5.77536C51.1633 5.75537 50.8433 5.79536 50.5433 5.75537C50.3033 5.55537 50.5433 5.95536 50.3833 6.07536L48.4233 12.4954C48.5033 12.7354 48.2033 12.4754 48.0433 12.5554C47.8233 12.5754 47.5833 12.5154 47.3833 12.5954C47.5633 12.3554 47.5833 12.0154 47.7033 11.7154C48.3033 9.77537 48.9033 7.83537 49.5033 5.89536C49.7433 5.63536 49.5033 5.77536 49.3033 5.77536C49.0233 5.79536 48.7233 5.73537 48.4633 5.81536C48.6433 5.63536 48.6433 5.33536 48.7433 5.11537C48.6833 4.79536 48.8633 5.07536 49.0633 5.01537C49.3033 5.03536 49.5633 4.95536 49.7833 5.05536C49.9033 5.13536 49.7833 4.73537 49.9033 4.61536C50.1233 3.91536 50.3233 3.17536 50.6033 2.47536C50.8633 1.83536 51.5633 1.57536 52.2233 1.57536ZM55.2352 3.57536C55.2552 3.55536 55.0752 3.85536 55.0952 3.93536C54.9752 4.29536 54.8952 4.67536 54.7352 5.01537C54.4952 5.25536 54.8952 5.01537 55.0352 5.07536C55.3152 5.05536 55.6152 5.13536 55.8752 5.03536C55.8552 5.07536 55.8152 5.09537 55.7952 5.13536H55.7752C55.7352 5.37537 55.5952 5.61536 55.5952 5.85537C55.6552 5.95536 55.2952 5.77536 55.1552 5.83537C54.9152 5.81536 54.6352 5.93537 54.4352 5.75537C54.5552 6.03537 54.3352 6.29537 54.2952 6.55536C53.8152 8.17536 53.2952 9.77537 52.8352 11.3754C52.6352 11.9954 53.3952 12.1154 53.8352 11.9954C54.1952 11.8554 54.0152 11.9154 53.9552 12.1954C53.9152 12.3954 53.7552 12.5954 53.8552 12.7754C53.4952 12.6154 52.9752 12.8554 52.5752 12.6554C52.0352 12.5354 51.7552 11.9754 51.8752 11.4554C52.0352 10.6154 52.3552 9.81537 52.5952 8.99537C52.9152 7.97537 53.2152 6.93537 53.5552 5.93537C53.8152 5.67536 53.4752 5.87536 53.3152 5.83537C53.0352 5.87536 52.7352 5.79536 52.4552 5.89536C52.6552 5.69536 52.6552 5.39536 52.7752 5.15536C52.6352 4.85536 52.9152 5.17537 53.0952 5.07536C53.3552 5.11537 53.6552 5.01537 53.8752 5.17537C53.7752 4.89536 53.9752 4.63537 54.0352 4.35537C54.1352 4.13536 53.9752 3.99537 54.2552 4.03536C54.5552 3.89537 54.8952 3.81537 55.1552 3.63537C55.1952 3.59536 55.2152 3.57536 55.2352 3.57536ZM68.3914 2.27536C72.2114 2.27536 72.6914 4.15536 71.9714 6.51536L71.3714 8.41536H71.3914C71.0314 9.57536 70.2714 10.5154 69.0114 10.5154C68.1714 10.5154 67.7514 9.79536 67.6514 9.23537L67.6914 8.69536L67.5314 9.17537C67.1714 9.67537 66.5114 10.2354 65.5114 10.2354C64.2314 10.2354 63.3314 9.05536 63.8514 7.45536C64.5714 5.11537 66.5114 4.73537 67.1114 4.73537C67.6914 4.73537 68.1514 4.87536 68.4514 5.55537L68.5514 6.09536L68.6114 5.55537L68.8314 4.75536L68.8114 4.59536L68.9114 4.67536H69.7314L69.8914 4.61536L69.7914 4.75536L68.6514 8.35537C68.5314 8.79536 68.4914 9.45537 69.0114 9.45537C69.4514 9.45537 70.0114 9.25536 70.3714 8.07537L70.8714 6.51536C71.4314 4.59536 71.6114 3.33537 68.3914 3.33537C65.0914 3.33537 63.4914 5.09537 62.8114 7.35536C62.1314 9.51537 62.8314 11.4554 64.7714 11.4554H70.6514L70.8114 11.3954L70.7114 11.5354L70.3914 12.4554L70.4514 12.5954L70.3114 12.4954H64.7714C61.8714 12.4954 61.0114 9.59537 61.8114 7.01536C62.3914 5.09537 64.0114 2.27536 68.3914 2.27536ZM67.2714 5.65537C66.5114 5.65537 65.3114 6.39537 64.8914 7.65536C64.6114 8.63537 64.8914 9.21537 65.7914 9.21537C66.5114 9.21537 67.6514 8.55536 68.1114 7.11537C68.3914 6.11537 67.9114 5.65537 67.2714 5.65537ZM77.6475 1.39537C77.9675 1.39537 78.3075 1.49537 78.5675 1.69536C78.9875 2.01536 78.9875 2.57536 78.8075 3.01536C78.5875 3.67536 78.4475 4.35537 78.1475 4.97536C77.8875 5.41536 77.4475 5.79536 76.9675 5.95536C76.6275 5.91537 77.0875 6.05536 77.0475 6.25536C77.4875 7.53536 77.9475 8.83536 78.3675 10.1354C78.3675 10.4354 78.4275 10.3754 78.4875 10.1154C78.7275 9.69537 78.9075 9.17537 78.8475 8.69536C78.8475 8.65536 79.1875 8.73536 79.3475 8.69536C79.4875 8.71537 79.7875 8.69536 79.8475 8.67537C79.8075 8.69536 79.8075 8.75537 79.7875 8.77536C79.7275 9.65536 79.4475 10.5554 78.8075 11.1954C78.4275 11.1954 78.8475 11.2354 78.8475 11.4354C78.9675 11.7954 79.0675 12.1754 79.2275 12.5154C79.3275 12.6354 78.9275 12.4954 78.8075 12.5354C78.6075 12.5554 78.3675 12.4754 78.1875 12.5954C78.3075 12.3954 78.1075 12.1754 78.0675 11.9754C77.9475 11.8554 78.0675 11.3954 77.9075 11.6954C77.5275 11.9554 77.0075 11.9554 76.5475 12.0354C75.5875 12.0954 74.4475 12.1354 73.7275 11.3754C73.1675 10.7954 73.2675 9.95537 73.5275 9.25536C73.8075 8.39537 73.9675 7.47536 74.4475 6.67537C74.7875 6.17536 75.2675 5.77536 75.8275 5.55537C76.1675 5.63536 75.8275 5.47537 75.7875 5.29537C75.6075 4.85536 75.4075 4.39536 75.6275 3.93536C75.8275 3.33537 75.9675 2.71536 76.2075 2.13537C76.5275 1.67537 77.0875 1.41536 77.6475 1.39537ZM77.5275 2.27536C77.1275 2.27536 76.9475 2.67536 76.8675 3.01536C76.7275 3.49536 76.5875 3.95536 76.4475 4.43536C76.4875 4.71537 76.7275 4.97536 76.6275 5.25536C76.8275 4.91537 77.3275 4.87536 77.4275 4.43536C77.6475 3.79537 77.8475 3.15537 78.0075 2.49536C78.0475 2.27536 77.7075 2.29536 77.6075 2.27536C77.5675 2.27536 77.5475 2.27536 77.5275 2.27536ZM76.2075 6.27536C76.1875 6.27536 76.1075 6.43536 75.9675 6.49537C75.3275 6.83536 74.9675 7.51537 74.8075 8.19536C74.6275 8.85537 74.3875 9.51537 74.2275 10.1954C74.1275 10.8754 74.8875 11.1754 75.4275 11.1754C76.1875 11.2154 76.9475 11.1554 77.6475 10.8954C77.9275 10.8954 77.8275 10.8954 77.6675 10.7554H77.6475C77.1675 9.33536 76.6675 7.89536 76.1875 6.47537C76.2075 6.33536 76.2275 6.27536 76.2075 6.27536ZM85.3671 0.0553646C85.4271 0.0553646 85.6671 0.195365 85.7671 0.115365C85.9071 0.135365 86.2071 0.0953641 86.2671 0.0953641C86.1071 0.295365 86.0871 0.595365 85.9871 0.855365C85.9071 1.09536 85.9071 1.37536 85.6871 1.53536C86.1271 1.39537 86.5671 1.87537 86.7271 2.25536C86.9871 2.83536 86.7871 3.49536 86.6271 4.07537C86.6871 4.21536 86.6271 4.11536 86.5471 4.07537C86.2071 4.09537 85.8671 4.03536 85.5471 4.11536C85.7271 3.85536 85.8671 3.35537 85.8671 2.97537C85.9271 2.25536 85.0671 2.13537 84.5271 2.27536C83.7871 2.39536 83.3671 3.11536 83.2071 3.81537C83.0071 4.35537 83.3071 4.91537 83.6871 5.29537C84.3471 6.03537 85.2071 6.75537 85.2871 7.83537C85.3271 8.79536 84.9871 9.81537 84.3271 10.5554C83.8671 11.0354 83.2071 11.3354 82.5671 11.2954C82.3271 11.0554 82.5271 11.4554 82.4071 11.5954C82.3271 11.8954 82.2071 12.2154 82.1671 12.5354C82.2471 12.7354 81.9071 12.4554 81.7671 12.5554C81.6071 12.5354 81.3071 12.5754 81.2671 12.5754C81.4271 12.3954 81.4071 12.1154 81.5071 11.8954C81.6071 11.6554 81.5871 11.3354 81.8271 11.1754C81.3671 11.2754 80.8871 10.9554 80.5871 10.6354C80.1071 9.97537 80.4271 9.11536 80.5871 8.41536C80.4871 8.23536 80.8471 8.49537 81.0071 8.41536C81.2271 8.39537 81.4471 8.45536 81.6671 8.35537C81.4071 8.69536 81.3471 9.15536 81.2871 9.57536C81.1471 10.1354 81.6671 10.5354 82.2071 10.4954C82.9071 10.5954 83.6071 10.1954 83.9271 9.55537C84.2671 8.87536 84.5471 7.97537 84.0671 7.29536C83.5071 6.43536 82.5271 5.85537 82.2471 4.81537C82.0071 3.87536 82.4471 2.89536 83.0271 2.17536C83.5071 1.63536 84.2471 1.31537 84.9671 1.37536C85.1671 1.59537 84.9671 1.19536 85.0871 1.07536C85.1871 0.755365 85.3071 0.435364 85.3671 0.135365C85.3471 0.0753644 85.3471 0.0553646 85.3671 0.0553646Z" fill="black"/>
</svg>
