<svg width="107" height="20" viewBox="0 0 107 20" fill="none" xmlns="http://www.w3.org/2000/svg">
<path d="M7.02403 8.01327L6.60403 9.31327L6.64403 9.47327L6.50403 9.37327C6.36403 9.31327 6.12403 9.31327 6.06403 9.31327C4.86403 9.31327 4.12403 10.2533 3.26403 13.1133L1.88403 17.5933L1.92403 17.7533L1.78403 17.6733H0.744034L0.584034 17.7333L0.684034 17.5933L3.04403 9.93327C3.30403 9.07327 3.44403 8.33327 3.48403 8.11327L3.42403 7.93327L3.54403 8.05327H4.58403L4.74403 7.99327L4.64403 8.11327C4.60403 8.25327 4.54403 8.55327 4.46403 8.99327L4.18403 9.75327L4.60403 9.07327C5.40403 8.17327 5.96403 7.95327 6.96403 7.93327L7.14403 7.87327L7.02403 8.01327ZM11.9911 13.2133L12.0311 13.3933L11.9111 13.2733H7.77107L7.57107 13.1533L7.65107 13.3933L7.03107 15.4533C6.75107 16.3733 7.09107 16.9533 8.13107 16.9533C9.25107 16.9533 9.87107 16.4733 10.3111 14.8733V14.6933L10.4311 14.7733H11.4111L11.5911 14.7333L11.4711 14.8733C11.2111 16.1133 10.5111 17.8733 8.15107 17.8733C6.65107 17.8733 5.29107 17.1133 5.95107 14.9933L7.13107 11.1733C7.97107 8.41327 9.27107 7.79327 10.7311 7.79327C13.2711 7.79327 13.0711 9.71327 12.6911 10.9733L12.0311 13.2133H11.9911ZM10.5711 8.73327C9.95107 8.73327 8.99107 8.95327 8.35107 10.9933L8.01107 12.1333L7.83107 12.3733L8.11107 12.2733H10.9711L11.1511 12.3933L11.0911 12.1533L11.6711 10.3333C11.9911 9.21327 11.5711 8.73327 10.5711 8.73327ZM18.279 7.79327L18.019 8.69327L18.059 8.85327L17.939 8.75327H16.699L16.539 8.61327L16.599 8.85327L14.499 15.6733C14.319 16.2133 14.299 16.8133 15.139 16.8133C15.419 16.8133 15.699 16.7733 15.879 16.7533L16.079 16.6333L15.939 16.8333L15.699 17.6333L15.759 17.8133L15.619 17.6933C15.479 17.7333 15.319 17.7533 15.079 17.7533C12.939 17.7533 12.959 16.5133 13.339 15.2933L15.339 8.89327L15.519 8.65327L15.239 8.75327H14.119L13.939 8.79327L14.059 8.69327L14.339 7.79327L14.279 7.63327L14.439 7.73327H15.579L15.799 7.87327L15.739 7.63327L16.079 6.51327L16.019 6.35327L16.179 6.41327L17.419 5.91327L17.579 5.73327L17.459 5.97327L16.979 7.59327L16.799 7.83327L17.059 7.73327H18.239L18.419 7.69327L18.279 7.79327ZM24.9759 8.19327L22.6359 15.8333C22.3559 16.6933 22.2359 17.4333 22.1959 17.6733L22.2359 17.8333L22.1159 17.7533H21.0759L20.9159 17.8133L21.0359 17.6733C21.0359 17.5533 21.0959 17.3133 21.1759 16.9733L21.4359 16.2333L21.0359 16.8533C20.1759 17.7133 19.3359 17.7733 19.0559 17.7733C17.6959 17.7733 17.0359 16.7933 17.4759 15.4333L19.7159 8.19327L19.6559 8.03327L19.7959 8.15327H20.8559L21.0359 8.09327L20.9159 8.19327L18.5959 15.6733C18.3359 16.5133 18.9759 16.8933 19.4959 16.8933C20.2159 16.8933 21.3159 16.2333 21.9959 13.9933L23.7759 8.19327L23.7359 8.03327L23.8959 8.15327H24.9359L25.0959 8.09327L24.9759 8.19327ZM30.6959 8.01327L30.2759 9.31327L30.3159 9.47327L30.1759 9.37327C30.0359 9.31327 29.7959 9.31327 29.7359 9.31327C28.5359 9.31327 27.7959 10.2533 26.9359 13.1133L25.5559 17.5933L25.5959 17.7533L25.4559 17.6733H24.4159L24.2559 17.7333L24.3559 17.5933L26.7159 9.93327C26.9759 9.07327 27.1159 8.33327 27.1559 8.11327L27.0959 7.93327L27.2159 8.05327H28.2559L28.4159 7.99327L28.3159 8.11327C28.2759 8.25327 28.2159 8.55327 28.1359 8.99327L27.8559 9.75327L28.2759 9.07327C29.0759 8.17327 29.6359 7.95327 30.6359 7.93327L30.8159 7.87327L30.6959 8.01327ZM34.3629 17.5333L34.4229 17.6933L34.2829 17.6133H33.2229L33.0429 17.6733L33.1629 17.5333L35.4829 10.0933C35.7429 9.25327 35.1029 8.87327 34.6029 8.87327C33.8429 8.87327 32.7629 9.53327 32.0829 11.7533L30.3029 17.5333L30.3429 17.6933L30.2029 17.6133H29.1629L29.0029 17.6733L29.1029 17.5333L31.4629 9.91327C31.7229 9.05327 31.8629 8.31327 31.8829 8.09327L31.8429 7.91327L31.9629 8.03327H32.9829L33.1629 7.97327L33.0429 8.09327C33.0029 8.19327 32.9829 8.41327 32.9029 8.79327L32.6429 9.51327L33.0429 8.87327C33.9029 8.03327 34.7429 7.97327 35.0229 7.97327C36.3629 7.97327 37.0229 8.93327 36.6029 10.3133L34.3629 17.5333ZM46.9478 10.6333H45.9278L45.7478 10.6933L45.8478 10.5533C46.4678 8.95327 45.8078 8.67327 45.2478 8.67327C44.4478 8.67327 43.8078 9.41327 43.6478 9.99327C43.3878 10.8133 43.3078 11.2333 44.3478 12.0533C45.5678 12.9933 45.9478 13.3733 45.9478 14.0933C45.9478 16.4533 44.4078 17.7533 42.7278 17.7533C41.0278 17.7533 40.6078 16.7133 40.6078 16.0333C40.6078 15.6933 40.7078 15.3933 40.8878 14.8133L40.8278 14.6333L40.9878 14.7133L42.1078 14.6333L42.2878 14.5733L42.1678 14.7133C42.0278 15.0933 41.7878 15.6133 41.7878 15.9533C41.7878 16.3333 41.9678 16.8533 42.7078 16.8533C44.0278 16.8533 44.4278 15.7333 44.6678 15.0933C44.9078 14.2533 44.8478 13.8333 43.6878 12.9733C42.6078 12.1333 42.3278 11.7533 42.3278 10.8533C42.3278 8.65327 44.0278 7.77327 45.3678 7.77327C47.2478 7.77327 47.5078 9.27327 47.0278 10.5533L47.0878 10.7133L46.9478 10.6333ZM51.0168 3.79327L51.1368 3.87327H52.1768L52.3568 3.81327L52.2368 3.95327L50.7568 8.69327L50.4168 9.31327L50.8968 8.81327C51.6368 8.29327 52.3568 8.07327 52.8768 8.07327C54.5168 8.07327 54.7168 9.43327 54.2368 10.9733L52.1768 17.6333L52.2168 17.8133L52.0968 17.7333H51.0568L50.8768 17.7933L50.9968 17.6333L53.1568 10.6133C53.5568 9.31327 53.0168 8.95327 52.4568 8.95327C51.4368 8.95327 50.4768 9.69327 49.4768 12.8533L47.9968 17.6333L48.0568 17.8133L47.9168 17.7333H46.8568L46.6968 17.7933L46.7968 17.6333L51.0568 3.95327L51.0168 3.79327ZM59.8568 3.69327L59.9768 3.55327L59.7968 3.59327H58.7368L58.6168 3.51327L58.6568 3.69327L58.2768 4.87327L58.1568 5.03327L58.3368 4.97327H59.3768L59.5168 5.05327L59.4768 4.87327L59.8568 3.69327ZM58.4768 8.05327L55.5368 17.6133L55.5968 17.7933L55.4568 17.6933H54.3768L54.2168 17.7533L54.3168 17.6133L57.2768 8.05327L57.2368 7.87327L57.3768 7.97327H58.4168L58.5968 7.91327L58.4768 8.05327ZM65.2353 3.51327L64.9353 4.43327L64.9753 4.61327L64.8353 4.49327C64.6553 4.43327 64.4553 4.39327 64.1953 4.39327C63.4753 4.39327 63.1153 4.57327 62.8353 5.55327L62.1753 7.65327L62.0153 7.89327L62.2753 7.81327H63.6153L63.8153 7.75327L63.6753 7.87327L63.4153 8.75327L63.4553 8.93327L63.3153 8.81327H61.9353L61.7153 8.69327L61.7753 8.93327L59.1353 17.5533V17.7333L58.9953 17.6533H57.9553L57.7753 17.7133L57.8753 17.5533L60.5353 8.95327L60.7153 8.71327L60.4553 8.81327H59.3553L59.1753 8.85327L59.2953 8.75327L59.5753 7.87327L59.5353 7.69327L59.6753 7.81327H60.7753L60.9953 7.91327L60.9353 7.69327L61.7553 5.01327C62.2153 3.45327 63.3153 3.33327 64.3353 3.33327C64.6953 3.33327 64.9153 3.37327 65.1753 3.43327L65.3353 3.41327L65.2353 3.51327ZM68.3181 7.79327L68.0581 8.69327L68.0981 8.85327L67.9781 8.75327H66.7381L66.5781 8.61327L66.6381 8.85327L64.5381 15.6733C64.3581 16.2133 64.3381 16.8133 65.1781 16.8133C65.4581 16.8133 65.7381 16.7733 65.9181 16.7533L66.1181 16.6333L65.9781 16.8333L65.7381 17.6333L65.7981 17.8133L65.6581 17.6933C65.5181 17.7333 65.3581 17.7533 65.1181 17.7533C62.9781 17.7533 62.9981 16.5133 63.3781 15.2933L65.3781 8.89327L65.5581 8.65327L65.2781 8.75327H64.1581L63.9781 8.79327L64.0981 8.69327L64.3781 7.79327L64.3181 7.63327L64.4781 7.73327H65.6181L65.8381 7.87327L65.7781 7.63327L66.1181 6.51327L66.0581 6.35327L66.2181 6.41327L67.4581 5.91327L67.6181 5.73327L67.4981 5.97327L67.0181 7.59327L66.8381 7.83327L67.0981 7.73327H68.2781L68.4581 7.69327L68.3181 7.79327ZM81.0389 7.41327C85.4389 7.41327 86.0189 9.59327 85.1789 12.2933L84.4989 14.4933C84.0789 15.8333 83.1989 16.9333 81.7789 16.9333C80.7989 16.9333 80.3189 16.0933 80.1989 15.4333L80.2389 14.8133L80.0589 15.3733C79.6389 15.9533 78.8989 16.5933 77.7389 16.5933C76.2589 16.5933 75.2189 15.2333 75.8189 13.3933C76.6389 10.6933 78.8789 10.2333 79.5789 10.2333C80.2389 10.2333 80.7589 10.4133 81.1189 11.1933L81.2389 11.8133L81.2989 11.1933L81.5589 10.2733L81.5189 10.0933L81.6389 10.1933H82.5989L82.7789 10.1333L82.6589 10.2733L81.3589 14.4333C81.1989 14.9333 81.1789 15.7133 81.7589 15.7133C82.2589 15.7133 82.9189 15.4733 83.3389 14.0933L83.8989 12.2933C84.5589 10.0933 84.7589 8.63327 81.0389 8.63327C77.2589 8.63327 75.3989 10.6533 74.5989 13.2733C73.8389 15.7733 74.6389 17.9933 76.8789 17.9933H83.6589L83.8389 17.9333L83.7389 18.0733L83.3589 19.1533L83.4189 19.3333L83.2789 19.2133H76.8789C73.5389 19.2133 72.5389 15.8533 73.4589 12.8933C74.1389 10.6533 75.9989 7.41327 81.0389 7.41327ZM79.7589 11.3133C78.8989 11.3133 77.4989 12.1733 77.0189 13.6333C76.6989 14.7533 77.0189 15.4133 78.0589 15.4133C78.8789 15.4133 80.1989 14.6733 80.7189 12.9933C81.0589 11.8533 80.4989 11.3133 79.7589 11.3133ZM95.0161 13.1733C94.9361 14.4933 94.3961 15.7533 93.7161 16.3733L93.4561 16.3933L93.6961 16.5133L94.2361 18.0733L94.3361 18.2133L94.1561 18.1533H93.0561L92.9161 18.2333L92.9761 18.0733L92.6561 17.1733V16.8733L92.4961 17.1133C91.9561 17.3533 90.8961 17.5333 89.5761 17.5333C86.9361 17.5333 86.0961 15.9133 86.5961 14.2533L87.3761 11.7333C87.9161 10.0333 88.7961 9.39327 89.7361 8.91327L90.0361 8.95327L89.8161 8.77327L89.6961 8.45327C89.3361 7.47327 89.3361 7.41327 89.5761 6.65327L90.1761 4.69327C90.4361 3.83327 91.5761 3.43327 92.2561 3.43327C93.4561 3.43327 94.1361 4.37327 93.8361 5.25327L93.1161 7.59327C92.8561 8.41327 92.3761 8.95327 91.3961 9.45327H91.0961L91.3361 9.61327L93.1561 14.9333L93.1961 15.3133L93.3161 14.9533C93.5561 14.6133 93.7561 13.9933 93.8561 13.1733L93.7561 13.0133L93.9361 13.0933H94.9561L95.1361 13.0133L95.0361 13.1733H95.0161ZM92.1361 4.61327C91.5361 4.61327 91.3961 4.83327 91.2761 5.23327L90.6561 7.29327C90.5961 7.37327 90.5961 7.49327 90.6561 7.59327L90.8961 8.23327L90.8561 8.53327L91.0161 8.29327C91.7161 7.93327 91.8361 7.71327 91.9961 7.17327L92.5961 5.17327C92.7561 4.73327 92.6561 4.61327 92.1161 4.61327H92.1361ZM92.1961 15.7933L90.2561 10.1533L90.3161 9.81327L90.1361 10.0933C89.2961 10.5733 88.8561 11.0333 88.5561 12.0533L87.7561 14.7333C87.4561 15.6133 87.9561 16.3733 89.5561 16.3733C90.6561 16.3733 91.4961 16.2733 92.1161 15.9733H92.4561L92.1961 15.7933ZM105.284 6.69327H103.924L103.724 6.77327L103.864 6.59327C104.384 5.17327 104.624 3.85327 102.824 3.85327C100.964 3.85327 100.484 5.23327 100.264 5.93327C99.8436 7.25327 99.9436 7.67327 101.684 9.43327C103.384 11.1733 103.684 12.4533 103.044 14.5333C102.524 16.2333 101.404 17.7133 99.1836 17.8333L98.9436 17.6533L99.0036 17.9133L98.5236 19.6533L98.5836 19.8733L98.4036 19.7333H97.3236L97.1236 19.7933L97.2636 19.6533L97.7836 17.8533L98.0236 17.6133L97.7236 17.6733C95.7436 17.1733 95.2836 15.9533 96.1436 13.4333L96.1036 13.2133L96.2236 13.3533H97.5836L97.8036 13.2733L97.6636 13.4333C96.5236 16.3333 97.6636 16.5733 98.9636 16.5733C100.744 16.5733 101.364 15.0133 101.644 14.1933C102.064 12.7933 102.124 12.0333 100.224 10.1533C98.6236 8.57327 98.3436 7.25327 98.7236 5.93327C99.5036 3.43327 101.024 2.53327 102.824 2.49327L103.024 2.67327L102.964 2.39327L103.504 0.673268L103.444 0.453267L103.624 0.593267H104.704L104.904 0.533267L104.764 0.673268L104.204 2.53327L103.964 2.77327L104.284 2.71327C106.104 3.37327 105.944 5.27327 105.384 6.63327L105.464 6.79327L105.284 6.69327Z" fill="white"/>
</svg>
